mtllib Home0.2.mtl
o Default
v 5.875 2 -6
v 5.875 4 -6
v 5.875 4 -4
v 5.875 2 -4
v -6 2.500873327255249 -5.624300003051758
v -4 4.500873565673828 -5.624300003051758
v -6 4.500873565673828 -5.624300003051758
v -4 2.500873327255249 -5.624300003051758
v -7.9375 1.600000023841858 0.3999999761581421
v -7.9375 4.400000095367432 -2.3999998569488525
v -7.9375 4.400000095367432 0.3999999761581421
v -7.9375 1.600000023841858 -2.3999998569488525
v 5.9375 1.600000023841858 -2.4000000953674316
v 5.9375 4.400000095367432 0.3999999761581421
v 5.9375 4.400000095367432 -2.4000000953674316
v 5.9375 1.600000023841858 0.3999999761581421
v 4 0.2510611414909363 -2.499150037765503
v 6 0.7508397698402405 -2.4994499683380127
v 4 0.7508397698402405 -2.4994499683380127
v 6 0.2508397698402405 -2.4994499683380127
v -2 0 -5.625
v 0 4 -5.625
v -2 4 -5.625
v 0 0 -5.625
v -4 -0.9992437362670898 -4.999350070953369
v -4 3.00075626373291 -5.999350070953369
v -4 3.00075626373291 -4.999350070953369
v -4 -0.9992437362670898 -5.999350070953369
v -4 0.12422249466180801 2.1242499351501465
v -2 0.12442249804735184 0.12424996495246887
v -4 0.12442249804735184 0.12424996495246887
v -2 0.12422249466180801 2.1242499351501465
v -8 0.0007562711834907532 -4.999350070953369
v -4 3.00075626373291 -4.999350070953369
v -8 3.00075626373291 -4.999350070953369
v -4 0.0007562711834907532 -4.999350070953369
v -8 3.00075626373291 -4.999350070953369
v -4 3.00075626373291 -5.999350070953369
v -8 3.000873327255249 -5.999300003051758
v -4 3.00075626373291 -4.999350070953369
v 4 0.7508397698402405 -2.4994499683380127
v 6 0.7511897683143616 -5.999450206756592
v 4 0.7511897683143616 -5.999450206756592
v 6 0.7508397698402405 -2.4994499683380127
v 4 0.2510611414909363 -5.999149799346924
v 4 0.7508397698402405 -2.4994499683380127
v 4 0.7511897683143616 -5.999450206756592
v 4 0.2510611414909363 -2.499150037765503
v -6 0.7504129409790039 0.0002499992260709405
v -4 0.7506070137023926 -1.9995999336242676
v -6 0.7506203651428223 -1.9995498657226562
v -4 0.7504067420959473 0.0004000241169705987
v -4 0.0006205587997101247 0.0004500291252043098
v -4 0.7506070137023926 -1.9995999336242676
v -4 0.7504067420959473 0.0004000241169705987
v -4 0.0006205587997101247 -1.9995499849319458
v -6 0.0006205587997101247 0.0004500291252043098
v -4 0.7504067420959473 0.0004000241169705987
v -6 0.7504129409790039 0.0002499992260709405
v -4 0.0006205587997101247 0.0004500291252043098
v -6 0.0006205587997101247 -1.9995499849319458
v -6 0.7504129409790039 0.0002499992260709405
v -6 0.7506203651428223 -1.9995498657226562
v -6 0.0006205587997101247 0.0004500291252043098
v -4 0.0006205587997101247 -1.9995499849319458
v -6 0.7506203651428223 -1.9995498657226562
v -4 0.7506070137023926 -1.9995999336242676
v -6 0.0006205587997101247 -1.9995499849319458
v -7.125 3.00075626373291 -5.124350070953369
v -6.125 4.00075626373291 -5.124350070953369
v -7.125 4.00075626373291 -5.124350070953369
v -6.125 3.00075626373291 -5.124350070953369
v -7.875 3.5 2.875
v -7.875 5.5 0.875
v -7.875 5.5 2.875
v -7.875 3.5 0.875
v -6 -0.24924372136592865 -2.874350070953369
v -4 1.7507562637329102 -2.874350070953369
v -6 1.7507562637329102 -2.874350070953369
v -4 -0.24924372136592865 -2.874350070953369
v 2 0.2510611414909363 -4.874149799346924
v 4 3.251061201095581 -4.874149799346924
v 2 3.251061201095581 -4.874149799346924
v 4 0.2510611414909363 -4.874149799346924
v 2 3.251061201095581 -4.874149799346924
v 4 3.2511820793151855 -5.8740997314453125
v 2 3.2511820793151855 -5.8740997314453125
v 4 3.251061201095581 -4.874149799346924
v 2 0.2510611414909363 -5.874149799346924
v 2 3.251061201095581 -4.874149799346924
v 2 3.2511820793151855 -5.8740997314453125
v 2 0.2510611414909363 -4.874149799346924
v 4 0.125074565410614 0.7498999834060669
v 6 0.7502745389938354 -1.250100016593933
v 4 0.7502745389938354 -1.250100016593933
v 6 0.125074565410614 0.7498999834060669
v 0 2 -5.75
v 2 4 -5.75
v 0 4 -5.75
v 2 2 -5.75
v -7.199999809265137 0.2503262162208557 2.0001001358032227
v -6 0.2504462003707886 0.8001000285148621
v -7.199999809265137 0.2504462003707886 0.8001000285148621
v -6 0.2503262162208557 2.0001001358032227
v 0 0.00017515537911094725 -1.999750018119812
v 2 0.0003751553886104375 -3.9997498989105225
v 0 0.0003751553886104375 -3.9997498989105225
v 2 0.00017515537911094725 -1.999750018119812
v 0 0.00014498617383651435 0.00005000249802833423
v 2 0.00017515537911094725 -1.999750018119812
v 0 0.00017515537911094725 -1.999750018119812
v 2 0.00014498617383651435 0.00005000249802833423
v 0 -0.00006864373426651582 1.9998500347137451
v 2 0.00014498617383651435 0.00005000249802833423
v 0 0.00014498617383651435 0.00005000249802833423
v 2 -0.00006864373426651582 1.9998500347137451
v 0 -0.0002587436174508184 3.999650001525879
v 2 -0.00006864373426651582 1.9998500347137451
v 0 -0.00006864373426651582 1.9998500347137451
v 2 -0.0002587436174508184 3.999650001525879
v -2 -0.0003086412907578051 3.999650001525879
v 0 -0.00006864373426651582 1.9998500347137451
v -2 -0.0001086413103621453 1.999650001525879
v 0 -0.0002587436174508184 3.999650001525879
v -2 -0.0001086413103621453 1.999650001525879
v 0 0.00014498617383651435 0.00005000249802833423
v -2 -0.000016435338693554513 -0.0001500075013609603
v 0 -0.00006864373426651582 1.9998500347137451
v -2 -0.000016435338693554513 -0.0001500075013609603
v 0 0.00017515537911094725 -1.999750018119812
v -2 0.00019989731663372368 -1.9999500513076782
v 0 0.00014498617383651435 0.00005000249802833423
v -2 0.00019989731663372368 -1.9999500513076782
v 0 0.0003751553886104375 -3.9997498989105225
v -2 0.00036956166150048375 -3.9997498989105225
v 0 0.00017515537911094725 -1.999750018119812
v 2 -0.0002587436174508184 3.999650001525879
v 4 -0.00018732159514911473 1.999650001525879
v 2 -0.00006864373426651582 1.9998500347137451
v 4 -0.000387321604648605 3.999650001525879
v 2 -0.00006864373426651582 1.9998500347137451
v 4 0.0000357365352101624 -0.0001500075013609603
v 2 0.00014498617383651435 0.00005000249802833423
v 4 -0.00018732159514911473 1.999650001525879
v 2 0.00014498617383651435 0.00005000249802833423
v 4 0.00022560283832717687 -1.9999500513076782
v 2 0.00017515537911094725 -1.999750018119812
v 4 0.0000357365352101624 -0.0001500075013609603
v 2 0.00017515537911094725 -1.999750018119812
v 4 0.00035405324888415635 -3.9997498989105225
v 2 0.0003751553886104375 -3.9997498989105225
v 4 0.00022560283832717687 -1.9999500513076782
v 4 -0.000387321604648605 3.999650001525879
v 6 -0.00016798592696432024 1.999650001525879
v 4 -0.00018732159514911473 1.999650001525879
v 6 -0.0003679859219118953 3.999650001525879
v 4 -0.00018732159514911473 1.999650001525879
v 6 -0.00002037645572272595 -0.0001500075013609603
v 4 0.0000357365352101624 -0.0001500075013609603
v 6 -0.00016798592696432024 1.999650001525879
v 4 0.0000357365352101624 -0.0001500075013609603
v 6 0.00016488706751260906 -1.9999500513076782
v 4 0.00022560283832717687 -1.9999500513076782
v 6 -0.00002037645572272595 -0.0001500075013609603
v 4 0.00022560283832717687 -1.9999500513076782
v 6 0.00036038944381289184 -3.9997498989105225
v 4 0.00035405324888415635 -3.9997498989105225
v 6 0.00016488706751260906 -1.9999500513076782
v -4 -0.0004214461660012603 3.999650001525879
v -2 -0.0001086413103621453 1.999650001525879
v -4 -0.00022144618560560048 1.999650001525879
v -2 -0.0003086412907578051 3.999650001525879
v -4 -0.00022144618560560048 1.999650001525879
v -2 -0.000016435338693554513 -0.0001500075013609603
v -4 0.0006205587997101247 0.0004500291252043098
v -2 -0.0001086413103621453 1.999650001525879
v -4 0.0006205587997101247 0.0004500291252043098
v -2 0.00019989731663372368 -1.9999500513076782
v -4 0.0006205587997101247 -1.9995499849319458
v -2 -0.000016435338693554513 -0.0001500075013609603
v -4 0.0006205587997101247 -1.9995499849319458
v -2 0.00036956166150048375 -3.9997498989105225
v -4 0.0003663225215859711 -3.9997498989105225
v -2 0.00019989731663372368 -1.9999500513076782
v -6 -0.00038234947714954615 3.999650001525879
v -4 -0.00022144618560560048 1.999650001525879
v -6 -0.00018234948220197111 1.999650001525879
v -4 -0.0004214461660012603 3.999650001525879
v -6 -0.00018234948220197111 1.999650001525879
v -4 0.0006205587997101247 0.0004500291252043098
v -6 0.0006205587997101247 0.0004500291252043098
v -4 -0.00022144618560560048 1.999650001525879
v -6 0.0006205587997101247 -1.9995499849319458
v -4 0.0003663225215859711 -3.9997498989105225
v -6 0.00040034286212176085 -3.9997498989105225
v -4 0.0006205587997101247 -1.9995499849319458
v -8 2 -2
v -8 4 -4
v -8 4 -2
v -8 2 -4
v -8 0 -2
v -8 2 -4
v -8 2 -2
v -8 0 -4
v -2 2 -6
v 0 4 -6
v -2 4 -6
v 0 2 -6
v -8 4 -1.7763568394002505e-15
v -8 6 -2
v -8 6 -1.7763568394002505e-15
v -8 4 -2
v -8 4 2
v -8 6 -1.7763568394002505e-15
v -8 6 2
v -8 4 -1.7763568394002505e-15
v -8 4 4
v -8 6 2
v -8 6 4
v -8 4 2
v -8 2 4
v -8 4 2
v -8 4 4
v -8 2 2
v -8 0 4
v -8 2 2
v -8 2 4
v -8 0.00027167797088623047 2.0000498294830322
v -8 0.00027167797088623047 2.0000498294830322
v -8 2 -2.4424906541753444e-15
v -8 2 2
v -8 0.00041306018829345703 0.0002499818801879883
v -8 0.00041306018829345703 0.0002499818801879883
v -8 2 -2
v -8 2 -2.4424906541753444e-15
v -8 0 -2
v -8 2 2
v -8 4 -1.7763568394002505e-15
v -8 4 2
v -8 2 -2.4424906541753444e-15
v 6 2 -6
v 6 4 -4
v 6 4 -6
v 6 2 -4
v -8 0 4
v -6 -0.00018234948220197111 1.999650001525879
v -8 0.00027167797088623047 2.0000498294830322
v -6 -0.00038234947714954615 3.999650001525879
v -8 0.00027167797088623047 2.0000498294830322
v -6 0.0006205587997101247 0.0004500291252043098
v -8 0.00041306018829345703 0.0002499818801879883
v -6 -0.00018234948220197111 1.999650001525879
v -8 0.00041306018829345703 0.0002499818801879883
v -6 0.0006205587997101247 -1.9995499849319458
v -8 0 -2
v -6 0.0006205587997101247 0.0004500291252043098
v -8 0 -2
v -6 0.00040034286212176085 -3.9997498989105225
v -8 0 -4
v -6 0.0006205587997101247 -1.9995499849319458
v -2 0.00036956166150048375 -3.9997498989105225
v 0 0.0010832493426278234 -5.999149799346924
v -2 0.0010832493426278234 -5.999149799346924
v 0 0.0003751553886104375 -3.9997498989105225
v -4 0.0003663225215859711 -3.9997498989105225
v -2 0.0010832493426278234 -5.999149799346924
v -4 0.0010879471665248275 -5.999149799346924
v -2 0.00036956166150048375 -3.9997498989105225
v -6 0.00040034286212176085 -3.9997498989105225
v -4 0.0010879471665248275 -5.999149799346924
v -6 0.0011025106068700552 -5.999149799346924
v -4 0.0003663225215859711 -3.9997498989105225
v -8 0 -4
v -6 0.0011025106068700552 -5.999149799346924
v -8 0.001108052209019661 -5.999149799346924
v -6 0.00040034286212176085 -3.9997498989105225
v 0 0.0003751553886104375 -3.9997498989105225
v 2 0.001068059471435845 -5.999149799346924
v 0 0.0010832493426278234 -5.999149799346924
v 2 0.0003751553886104375 -3.9997498989105225
v 2 0.0003751553886104375 -3.9997498989105225
v 4 0.0010611378820613027 -5.999149799346924
v 2 0.001068059471435845 -5.999149799346924
v 4 0.00035405324888415635 -3.9997498989105225
v 4 0.00035405324888415635 -3.9997498989105225
v 6 0.0010613960912451148 -5.999149799346924
v 4 0.0010611378820613027 -5.999149799346924
v 6 0.00036038944381289184 -3.9997498989105225
v 6 -0.00016798592696432024 1.999650001525879
v 6 2 4
v 6 2 2
v 6 -0.0003679859219118953 3.999650001525879
v 6 2 2
v 6 4 4
v 6 4 2
v 6 2 4
v 6 -0.00002037645572272595 -0.0001500075013609603
v 6 2 2
v 6 2 0
v 6 -0.00016798592696432024 1.999650001525879
v 6 2 0
v 6 4 2
v 6 4 0
v 6 2 2
v 6 4 2
v 6 6 4
v 6 6 2
v 6 4 4
v 6 4 0
v 6 6 2
v 6 6 0
v 6 4 2
v 6 4 -2
v 6 6 0
v 6 6 -2
v 6 4 0
v -6 0.0006205587997101247 0.0004500291252043098
v -4 0.0006205587997101247 -1.9995499849319458
v -6 0.0006205587997101247 -1.9995499849319458
v -4 0.0006205587997101247 0.0004500291252043098
v 6 0.00016488706751260906 -1.9999500513076782
v 6 2 0
v 6 2 -2
v 6 -0.00002037645572272595 -0.0001500075013609603
v 6 0.00036038944381289184 -3.9997498989105225
v 6 2 -2
v 6 2 -4
v 6 0.00016488706751260906 -1.9999500513076782
v 6 2 -4
v 6 4 -2
v 6 4 -4
v 6 2 -2
v 6 4 -4
v 6 6 -2
v 6 6 -4
v 6 4 -2
v 6 0.0010613960912451148 -5.999149799346924
v 6 2 -4
v 6 2 -6
v 6 0.00036038944381289184 -3.9997498989105225
v 6 4 -6
v 6 6 -4
v 6 6 -6
v 6 4 -4
v 4 0.0010611378820613027 -5.999149799346924
v 6 2 -6
v 4 2 -6
v 6 0.0010613960912451148 -5.999149799346924
v 4 2 -6
v 6 4 -6
v 4 4 -6
v 6 2 -6
v 4 4 -6
v 6 6 -6
v 4 6 -6
v 6 4 -6
v 2 4 -6
v 4 6 -6
v 2 6 -6
v 4 4 -6
v 2 2 -6
v 4 4 -6
v 2 4 -6
v 4 2 -6
v 2 0.001068059471435845 -5.999149799346924
v 4 2 -6
v 2 2 -6
v 4 0.0010611378820613027 -5.999149799346924
v 0 2 -6
v 2 4 -6
v 0 4 -6
v 2 2 -6
v 0 4 -6
v 2 6 -6
v 0 6 -6
v 2 4 -6
v 0 0.0010832493426278234 -5.999149799346924
v 2 2 -6
v 0 2 -6
v 2 0.001068059471435845 -5.999149799346924
v -2 0.0010832493426278234 -5.999149799346924
v 0 2 -6
v -2 2 -6
v 0 0.0010832493426278234 -5.999149799346924
v -2 4 -6
v 0 6 -6
v -2 6 -6
v 0 4 -6
v -4 4 -6
v -2 6 -6
v -4 6 -6
v -2 4 -6
v -6 4 -6
v -4 6 -6
v -6 6 -6
v -4 4 -6
v -6 2 -6
v -4 4 -6
v -6 4 -6
v -4 2 -6
v -8 2 -6
v -6 4 -6
v -8 4 -6
v -6 2 -6
v -6 0.0011025106068700552 -5.999149799346924
v -4 2 -6
v -6 2 -6
v -4 0.0010879471665248275 -5.999149799346924
v -4 0.0010879471665248275 -5.999149799346924
v -2 2 -6
v -4 2 -6
v -2 0.0010832493426278234 -5.999149799346924
v -4 2 -6
v -2 4 -6
v -4 4 -6
v -2 2 -6
v -8 0.001108052209019661 -5.999149799346924
v -6 2 -6
v -8 2 -6
v -6 0.0011025106068700552 -5.999149799346924
v -8 4 -6
v -6 6 -6
v -8 6 -6
v -6 4 -6
v -8 0 -4
v -8 2 -6
v -8 2 -4
v -8 0.001108052209019661 -5.999149799346924
v -8 2 -4
v -8 4 -6
v -8 4 -4
v -8 2 -6
v -8 4 -4
v -8 6 -6
v -8 6 -4
v -8 4 -6
v -8 4 -2
v -8 6 -4
v -8 6 -2
v -8 4 -4
v -2 -0.0003085899807047099 5.999650001525879
v 0 -0.0002587436174508184 3.999650001525879
v -2 -0.0003086412907578051 3.999650001525879
v 0 -0.0002587604976724833 5.999650001525879
vt 0.625 0.6875
vt 0.6875 0.75
vt 0.625 0.75
vt 0.6875 0.6875
vt 0.625 0.4375
vt 0.6875 0.5
vt 0.625 0.5
vt 0.6875 0.4375
vt 0 0.78125
vt 0.0625 0.84375
vt 0 0.84375
vt 0.0625 0.78125
vt 0.25 0.25
vt 0.3125 0.265625
vt 0.25 0.265625
vt 0.3125 0.25
vt 0.6875 0.875
vt 0.75 1
vt 0.6875 1
vt 0.75 0.875
vt 0.25 0.46875
vt 0.125 0.5
vt 0.125 0.46875
vt 0.25 0.5
vt 0.5625 0.4375
vt 0.5625 0.5
vt 0.125 0.375
vt 0.25 0.375
vt 0.3125 0.375
vt 0.375 0.2734375
vt 0.4375 0.3046875
vt 0.375 0.3046875
vt 0.4375 0.2734375
vt 0.375 0.25
vt 0.4375 0.25
vt 0.75 0.3828125
vt 0.8125 0.4453125
vt 0.75 0.4453125
vt 0.8125 0.3828125
vt 0.75 0
vt 0.8125 0.0625
vt 0.75 0.0625
vt 0.8125 0
vt 0 0.125
vt 0.0625 0.1875
vt 0 0.1875
vt 0.0625 0.125
vt 0.1875 0.5
vt 0.25 0.59375
vt 0.1875 0.59375
vt 0.25 0.625
vt 0.1875 0.625
vt 0.8125 0.1875
vt 0.75 0.25
vt 0.8125 0.25
vt 0.75 0.1875
vt 0.75 0.125
vt 0.8125 0.125
vt 0.9375 0
vt 0.875 0.0625
vt 0.9375 0.0625
vt 0.875 0
vt 0.125 1
vt 0 0.9599999785423279
vt 0.125 0.9599999785423279
vt 0 1
vn -1 0 0
vn 0 0 1
vn 1 0 0
vn 0 0.00060013 0.99999982
vn 0.00014997 0 0.99999999
vn 0 0.99999999 0.0001
vn 0.00002927 0.99999999 0.00011707
vn 0 1 0
vn 0 1 0.0001
vn 0.00000668 0.99999999 0.00010372
vn 0.00000309 0.99999999 0.00010014
vn -0.00007501 0.00026678 0.99999996
vn 0 0.00006669 1
vn -0.00002503 -0.0000666 -1
vn 0 1.6e-7 -1
vn 0 0.99999999 0.00012088
vn 0 0.9544528 0.29836193
vn 0 1 0.00009999
vn 0 1 0.00001509
vn 0 0.99999999 0.00010683
vn 0 1 0.00009506
vn -0.00002001 0.99999999 0.0001
vn -0.00002495 1 0.00009506
vn -0.00008072 1 0.00004611
vn -0.00002001 0.99999999 0.00010683
vn 0.00001236 0.99999999 0.00010818
vn -0.00008071 1 0.00001509
vn -0.0000028 1 0.00008484
vn 0.00001236 0.99999999 0.0001
vn 0.00005935 0.99999999 0.00009506
vn 0.00006429 0.99999999 0.0001
vn 0.00005464 0.99999999 0.00010683
vn 0.00005935 0.99999999 0.00011154
vn -0.00002522 1 0.00001509
vn 0.00005463 0.99999999 0.00009494
vn 0.00001055 0.99999999 0.0001
vn -0.00002522 1 0.00006423
vn -0.00000967 0.99999999 0.0001
vn 0.00002806 0.99999999 0.00011154
vn -0.00000967 1 0.00007381
vn 0.00003036 1 0.00009494
vn 0.00002806 1 0.00009264
vn -0.00000317 1 0.00006423
vn 0.00003036 0.99999999 0.00009776
vn -0.0000564 0.99999999 0.0001
vn 0.00031862 0.99999986 0.00042117
vn -0.0000564 1 0.00004611
vn 0.00021033 0.99999998 0
vn 0.00031853 0.99999994 0.00010818
vn -0.00000162 0.99999999 -0.00012711
vn 0.00021035 0.99999997 0.00008484
vn 0.00001955 0.99999999 0.0001
vn 0 0.99999992 0.00040161
vn 0.00001955 0.99999991 0.00042117
vn 0.00001701 0.99999999 -0.0001101
vn 0 0.99999999 -0.00012711
vn 0.00022704 0.99999996 0.00013584
vn 0.00019119 0.99999998 0.0001
vn -0.00010376 0.99999999 0.0000707
vn 0.00022709 0.99999989 0.00040161
vn -0.00031023 0.99999993 -0.0002065
vn -0.00010375 0.99999999 0
vn -0.00020017 0.99999998 0
vn -0.00031025 0.99999995 -0.0001101
vn 0 0.99999994 0.00035695
vn -0.0000028 0.99999994 0.00035415
vn 0.00000235 0.99999993 0.00036092
vn -0.00000162 0.99999994 0.00035695
vn 0.00000728 0.99999994 0.00035119
vn 0.00001701 0.99999993 0.00036092
vn 0.00000277 0.99999985 0.00055426
vn -0.00020022 0.99999992 0.00035119
vn 0.00000759 0.99999994 0.00035415
vn 0 0.99999994 0.00034656
vn 0.00000346 0.99999994 0.00034656
vn 0.00001055 0.99999994 0.00035365
vn -1.3e-7 0.99999994 0.00035365
vn -0.00000317 0.99999994 0.00035061
vn 0 0.00042533 0.99999991
vn 0 0.00042534 0.99999991
vn -0.00002495 1 -3e-8
vn -0.00002491 1 1e-8
g Scene
usemtl 7
f 1/1/1 3/2/1 2/3/1
f 1/1/1 4/4/1 3/2/1
f 5/5/2 6/6/2 7/7/2
f 5/5/2 8/8/2 6/6/2
f 9/9/3 10/10/3 11/11/3
f 9/9/3 12/12/3 10/10/3
f 13/9/1 14/10/1 15/11/1
f 13/9/1 16/12/1 14/10/1
f 17/13/4 18/14/4 19/15/4
f 17/13/5 20/16/5 18/14/5
f 21/17/2 22/18/2 23/19/2
f 21/17/2 24/20/2 22/18/2
f 25/21/3 26/22/3 27/23/3
f 25/21/3 28/24/3 26/22/3
f 29/25/6 30/7/6 31/26/6
f 29/25/6 32/5/6 30/7/6
f 33/27/2 34/21/2 35/23/2
f 33/27/2 36/28/2 34/21/2
f 37/23/7 38/24/7 39/22/7
f 37/23/8 40/21/8 38/24/8
f 41/15/9 42/29/9 43/28/9
f 41/15/9 44/14/9 42/29/9
f 45/13/1 46/14/1 47/15/1
f 45/13/1 48/16/1 46/14/1
f 49/30/10 50/31/10 51/32/10
f 49/30/11 52/33/11 50/31/11
f 53/34/3 54/33/3 55/30/3
f 53/34/3 56/35/3 54/33/3
f 57/34/12 58/33/12 59/30/12
f 57/34/13 60/35/13 58/33/13
f 61/34/1 62/33/1 63/30/1
f 61/34/1 64/35/1 62/33/1
f 65/34/14 66/33/14 67/30/14
f 65/34/15 68/35/15 66/33/15
f 69/36/2 70/37/2 71/38/2
f 69/36/2 72/39/2 70/37/2
f 73/40/3 74/41/3 75/42/3
f 73/40/3 76/43/3 74/41/3
f 77/44/2 78/45/2 79/46/2
f 77/44/2 80/47/2 78/45/2
f 81/48/2 82/49/2 83/50/2
f 81/48/2 84/24/2 82/49/2
f 85/50/16 86/51/16 87/52/16
f 85/50/16 88/49/16 86/51/16
f 89/50/1 90/51/1 91/49/1
f 89/50/1 92/52/1 90/51/1
f 93/53/17 94/54/17 95/55/17
f 93/53/17 96/56/17 94/54/17
f 97/41/2 98/57/2 99/58/2
f 97/41/2 100/42/2 98/57/2
f 101/59/18 102/60/18 103/61/18
f 101/59/18 104/62/18 102/60/18
usemtl 8
f 105/63/6 106/64/6 107/65/6
f 105/63/6 108/66/6 106/64/6
f 109/63/19 110/64/19 111/65/19
f 109/63/19 112/66/19 110/64/19
f 113/63/20 114/64/20 115/65/20
f 113/63/20 116/66/20 114/64/20
f 117/63/21 118/64/21 119/65/21
f 117/63/21 120/66/21 118/64/21
f 121/63/22 122/64/22 123/65/22
f 121/63/23 124/66/23 122/64/23
f 125/63/24 126/64/24 127/65/24
f 125/63/25 128/66/25 126/64/25
f 129/63/26 130/64/26 131/65/26
f 129/63/27 132/66/27 130/64/27
f 133/63/28 134/64/28 135/65/28
f 133/63/29 136/66/29 134/64/29
f 137/63/30 138/64/30 139/65/30
f 137/63/31 140/66/31 138/64/31
f 141/63/32 142/64/32 143/65/32
f 141/63/33 144/66/33 142/64/33
f 145/63/34 146/64/34 147/65/34
f 145/63/35 148/66/35 146/64/35
f 149/63/36 150/64/36 151/65/36
f 149/63/37 152/66/37 150/64/37
f 153/63/38 154/64/38 155/65/38
f 153/63/38 156/66/38 154/64/38
f 157/63/39 158/64/39 159/65/39
f 157/63/40 160/66/40 158/64/40
f 161/63/41 162/64/41 163/65/41
f 161/63/42 164/66/42 162/64/42
f 165/63/43 166/64/43 167/65/43
f 165/63/44 168/66/44 166/64/44
f 169/63/45 170/64/45 171/65/45
f 169/63/45 172/66/45 170/64/45
f 173/63/46 174/64/46 175/65/46
f 173/63/47 176/66/47 174/64/47
f 177/63/48 178/64/48 179/65/48
f 177/63/49 180/66/49 178/64/49
f 181/63/50 182/64/50 183/65/50
f 181/63/51 184/66/51 182/64/51
f 185/63/52 186/64/52 187/65/52
f 185/63/52 188/66/52 186/64/52
f 189/63/53 190/64/53 191/65/53
f 189/63/54 192/66/54 190/64/54
f 193/63/55 194/64/55 195/65/55
f 193/63/56 196/66/56 194/64/56
f 197/63/3 198/64/3 199/65/3
f 197/63/3 200/66/3 198/64/3
f 201/63/3 202/64/3 203/65/3
f 201/63/3 204/66/3 202/64/3
f 205/63/2 206/64/2 207/65/2
f 205/63/2 208/66/2 206/64/2
f 209/63/3 210/64/3 211/65/3
f 209/63/3 212/66/3 210/64/3
f 213/63/3 214/64/3 215/65/3
f 213/63/3 216/66/3 214/64/3
f 217/63/3 218/64/3 219/65/3
f 217/63/3 220/66/3 218/64/3
f 221/63/3 222/64/3 223/65/3
f 221/63/3 224/66/3 222/64/3
f 225/63/3 226/64/3 227/65/3
f 225/63/3 228/66/3 226/64/3
f 229/63/3 230/64/3 231/65/3
f 229/63/3 232/66/3 230/64/3
f 233/63/3 234/64/3 235/65/3
f 233/63/3 236/66/3 234/64/3
f 237/63/3 238/64/3 239/65/3
f 237/63/3 240/66/3 238/64/3
f 241/63/1 242/64/1 243/65/1
f 241/63/1 244/66/1 242/64/1
f 245/63/57 246/64/57 247/65/57
f 245/63/58 248/66/58 246/64/58
f 249/63/59 250/64/59 251/65/59
f 249/63/60 252/66/60 250/64/60
f 253/63/61 254/64/61 255/65/61
f 253/63/62 256/66/62 254/64/62
f 257/63/63 258/64/63 259/65/63
f 257/63/64 260/66/64 258/64/64
f 261/63/65 262/64/65 263/65/65
f 261/63/66 264/66/66 262/64/66
f 265/63/67 266/64/67 267/65/67
f 265/63/68 268/66/68 266/64/68
f 269/63/69 270/64/69 271/65/69
f 269/63/70 272/66/70 270/64/70
f 273/63/71 274/64/71 275/65/71
f 273/63/72 276/66/72 274/64/72
f 277/63/73 278/64/73 279/65/73
f 277/63/74 280/66/74 278/64/74
f 281/63/75 282/64/75 283/65/75
f 281/63/76 284/66/76 282/64/76
f 285/63/77 286/64/77 287/65/77
f 285/63/78 288/66/78 286/64/78
f 289/63/1 290/64/1 291/65/1
f 289/63/1 292/66/1 290/64/1
f 293/63/1 294/64/1 295/65/1
f 293/63/1 296/66/1 294/64/1
f 297/63/1 298/64/1 299/65/1
f 297/63/1 300/66/1 298/64/1
f 301/63/1 302/64/1 303/65/1
f 301/63/1 304/66/1 302/64/1
f 305/63/1 306/64/1 307/65/1
f 305/63/1 308/66/1 306/64/1
f 309/63/1 310/64/1 311/65/1
f 309/63/1 312/66/1 310/64/1
f 313/63/1 314/64/1 315/65/1
f 313/63/1 316/66/1 314/64/1
f 317/63/8 318/64/8 319/65/8
f 317/63/8 320/66/8 318/64/8
f 321/63/1 322/64/1 323/65/1
f 321/63/1 324/66/1 322/64/1
f 325/63/1 326/64/1 327/65/1
f 325/63/1 328/66/1 326/64/1
f 329/63/1 330/64/1 331/65/1
f 329/63/1 332/66/1 330/64/1
f 333/63/1 334/64/1 335/65/1
f 333/63/1 336/66/1 334/64/1
f 337/63/1 338/64/1 339/65/1
f 337/63/1 340/66/1 338/64/1
f 341/63/1 342/64/1 343/65/1
f 341/63/1 344/66/1 342/64/1
f 345/63/79 346/64/79 347/65/79
f 345/63/79 348/66/79 346/64/79
f 349/63/2 350/64/2 351/65/2
f 349/63/2 352/66/2 350/64/2
f 353/63/2 354/64/2 355/65/2
f 353/63/2 356/66/2 354/64/2
f 357/63/2 358/64/2 359/65/2
f 357/63/2 360/66/2 358/64/2
f 361/63/2 362/64/2 363/65/2
f 361/63/2 364/66/2 362/64/2
f 365/63/79 366/64/79 367/65/79
f 365/63/79 368/66/79 366/64/79
f 369/63/2 370/64/2 371/65/2
f 369/63/2 372/66/2 370/64/2
f 373/63/2 374/64/2 375/65/2
f 373/63/2 376/66/2 374/64/2
f 377/63/79 378/64/79 379/65/79
f 377/63/79 380/66/79 378/64/79
f 381/63/79 382/64/79 383/65/79
f 381/63/79 384/66/79 382/64/79
f 385/63/2 386/64/2 387/65/2
f 385/63/2 388/66/2 386/64/2
f 389/63/2 390/64/2 391/65/2
f 389/63/2 392/66/2 390/64/2
f 393/63/2 394/64/2 395/65/2
f 393/63/2 396/66/2 394/64/2
f 397/63/2 398/64/2 399/65/2
f 397/63/2 400/66/2 398/64/2
f 401/63/2 402/64/2 403/65/2
f 401/63/2 404/66/2 402/64/2
f 405/63/79 406/64/79 407/65/79
f 405/63/79 408/66/79 406/64/79
f 409/63/79 410/64/79 411/65/79
f 409/63/79 412/66/79 410/64/79
f 413/63/2 414/64/2 415/65/2
f 413/63/2 416/66/2 414/64/2
f 417/63/80 418/64/80 419/65/80
f 417/63/79 420/66/79 418/64/79
f 421/63/2 422/64/2 423/65/2
f 421/63/2 424/66/2 422/64/2
f 425/63/3 426/64/3 427/65/3
f 425/63/3 428/66/3 426/64/3
f 429/63/3 430/64/3 431/65/3
f 429/63/3 432/66/3 430/64/3
f 433/63/3 434/64/3 435/65/3
f 433/63/3 436/66/3 434/64/3
f 437/63/3 438/64/3 439/65/3
f 437/63/3 440/66/3 438/64/3
f 441/63/81 442/64/81 443/65/81
f 441/63/82 444/66/82 442/64/82
